# Blender 4.2.3 LTS
# www.blender.org
mtllib star.mtl
o 円
v 0.472422 0.740810 -0.418108
v 0.471267 0.072437 -0.614255
v 0.462242 0.426527 -0.014475
v 0.448149 0.033503 0.560443
v 0.456141 0.713391 0.409162
v 0.448587 1.138862 0.960628
v 0.462551 1.204965 0.267351
v 0.471975 1.860945 0.033258
v 0.472613 1.221911 -0.243930
v 0.485992 1.201858 -0.940073
v -0.502037 0.748052 -0.437045
v -0.503192 0.079679 -0.633193
v -0.512217 0.433769 -0.033413
v -0.526310 0.040745 0.541506
v -0.518317 0.720633 0.390225
v -0.525872 1.146104 0.941691
v -0.511908 1.212207 0.248414
v -0.502484 1.868187 0.014321
v -0.501846 1.229153 -0.262867
v -0.488467 1.209100 -0.959011
vn 0.9998 -0.0074 0.0194
vn -0.9998 0.0074 -0.0194
vn -0.0158 0.3363 0.9416
vn -0.0174 0.2174 0.9759
vn 0.0207 0.2815 -0.9593
vn 0.0208 0.3979 -0.9172
vn -0.0178 -0.7917 0.6106
vn -0.0163 -0.8611 0.5081
vn 0.0080 0.9996 -0.0286
vn 0.0056 0.9955 0.0950
vn 0.0048 -0.8256 -0.5643
vn 0.0073 -0.7496 -0.6619
vt 0.000000 0.000000
s 0
f 9/1/1 5/1/1 3/1/1
f 15/1/2 19/1/2 11/1/2
f 8/1/3 17/1/3 7/1/3
f 5/1/4 14/1/4 4/1/4
f 2/1/5 11/1/5 1/1/5
f 9/1/6 18/1/6 8/1/6
f 6/1/7 15/1/7 5/1/7
f 3/1/8 12/1/8 2/1/8
f 10/1/9 19/1/9 9/1/9
f 7/1/10 16/1/10 6/1/10
f 4/1/11 13/1/11 3/1/11
f 1/1/12 20/1/12 10/1/12
f 3/1/1 2/1/1 1/1/1
f 1/1/1 10/1/1 9/1/1
f 9/1/1 8/1/1 7/1/1
f 7/1/1 6/1/1 5/1/1
f 5/1/1 4/1/1 3/1/1
f 3/1/1 1/1/1 9/1/1
f 9/1/1 7/1/1 5/1/1
f 11/1/2 12/1/2 13/1/2
f 13/1/2 14/1/2 15/1/2
f 15/1/2 16/1/2 17/1/2
f 17/1/2 18/1/2 19/1/2
f 19/1/2 20/1/2 11/1/2
f 11/1/2 13/1/2 15/1/2
f 15/1/2 17/1/2 19/1/2
f 8/1/3 18/1/3 17/1/3
f 5/1/4 15/1/4 14/1/4
f 2/1/5 12/1/5 11/1/5
f 9/1/6 19/1/6 18/1/6
f 6/1/7 16/1/7 15/1/7
f 3/1/8 13/1/8 12/1/8
f 10/1/9 20/1/9 19/1/9
f 7/1/10 17/1/10 16/1/10
f 4/1/11 14/1/11 13/1/11
f 1/1/12 11/1/12 20/1/12
