# Blender 4.2.3 LTS
# www.blender.org
mtllib coaster.mtl
o 立方体
v -0.000000 -0.272540 -1.743108
v -0.000000 0.009016 -1.743108
v -0.000000 -0.272540 1.743108
v -0.000000 0.009016 1.743108
v -0.445718 -0.263575 -1.743108
v -0.445718 0.000051 1.743108
v -0.445718 0.000051 -1.743108
v -0.445718 -0.263575 1.743108
v 0.445656 0.000051 -1.743108
v 0.445656 -0.263575 1.743108
v 0.445656 -0.263575 -1.743108
v 0.445656 0.000051 1.743108
v -0.585828 -0.361506 1.743108
v -1.017699 -0.353732 1.184797
v -0.585828 0.163006 1.743108
v -1.017699 0.155232 1.184797
v -1.017699 -0.353732 -1.184797
v -0.585828 -0.361506 -1.743108
v -0.585828 0.163006 -1.743108
v -1.025499 0.162600 -1.189904
v 1.017637 -0.353732 1.184797
v 0.585766 -0.361506 1.743108
v 0.585766 0.163006 1.743108
v 1.017637 0.155232 1.184797
v 1.017637 -0.353732 -1.184797
v 0.585766 -0.361506 -1.743108
v 1.017637 0.155232 -1.184797
v 0.585766 0.163006 -1.743108
v -0.493700 -0.116075 -1.399216
v -0.493700 0.105639 -1.399216
v -0.493700 -0.116075 -1.737927
v -0.493700 0.105639 -1.737927
v 0.493700 -0.116075 -1.399216
v 0.493700 0.105639 -1.399216
v 0.493700 -0.116075 -1.737927
v 0.493700 0.105639 -1.737927
v 0.000000 -0.116075 -1.737927
v 0.000000 0.236560 -1.737927
v 0.000000 -0.116075 -1.399216
v 0.000000 0.236560 -1.399216
v -0.246850 -0.116075 -1.737927
v -0.246850 0.236560 -1.399216
v -0.246850 0.236560 -1.737927
v -0.246850 -0.116075 -1.399216
v 0.249552 0.236560 -1.737927
v 0.249552 -0.116075 -1.399216
v 0.249552 -0.116075 -1.737927
v 0.249552 0.236560 -1.399216
v -0.493700 -0.116075 1.743708
v -0.493700 0.105639 1.743708
v -0.493700 -0.116075 1.404997
v -0.493700 0.105639 1.404997
v 0.493700 -0.116075 1.743708
v 0.493700 0.105639 1.743708
v 0.493700 -0.116075 1.404997
v 0.493700 0.105639 1.404997
v 0.000000 -0.116075 1.404997
v 0.000000 0.236560 1.404997
v 0.000000 -0.116075 1.743708
v 0.000000 0.236560 1.743708
v -0.246850 -0.116075 1.404997
v -0.246850 0.236560 1.743708
v -0.246850 0.236560 1.404997
v -0.246850 -0.116075 1.743708
v 0.249552 0.236560 1.404997
v 0.249552 -0.116075 1.743708
v 0.249552 -0.116075 1.404997
v 0.249552 0.236560 1.743708
vn -0.0000 -0.0000 1.0000
vn 0.0201 0.9998 -0.0000
vn 0.7583 0.6520 -0.0000
vn 1.0000 -0.0000 -0.0000
vn -0.0000 -0.0000 -1.0000
vn -0.0201 -0.9998 -0.0000
vn -0.5729 -0.8196 -0.0000
vn -1.0000 -0.0000 -0.0000
vn -0.7583 0.6520 -0.0000
vn -0.0180 -0.9998 -0.0000
vn -0.7910 -0.0000 0.6118
vn -0.0180 0.9998 -0.0000
vn -0.7827 -0.0180 -0.6221
vn 0.7910 -0.0000 -0.6118
vn 0.0180 -0.9998 -0.0000
vn 0.0180 0.9998 -0.0000
vn 0.7910 -0.0000 0.6118
vn 0.5729 -0.8196 -0.0000
vn -0.0000 -1.0000 -0.0000
vn -0.4685 0.8834 -0.0000
vn -0.0000 1.0000 -0.0000
vn 0.4726 0.8813 -0.0000
vn -0.0201 0.9998 -0.0000
vn 0.0201 -0.9998 -0.0000
vn -0.9999 -0.0151 0.0032
vn 0.0030 1.0000 0.0031
vn -0.7910 -0.0000 -0.6118
vt 0.625000 0.937500
vt 0.375000 0.966635
vt 0.375000 0.937500
vt 0.750000 0.500000
vt 0.750000 0.750000
vt 0.687500 0.500000
vt 0.375000 0.783365
vt 0.625000 0.812500
vt 0.375000 0.812500
vt 0.841635 0.500000
vt 0.812500 0.750000
vt 0.812500 0.500000
vt 0.584963 0.540037
vt 0.415037 0.709963
vt 0.415037 0.540037
vt 0.375000 0.283365
vt 0.625000 0.312500
vt 0.375000 0.312500
vt 0.250000 0.500000
vt 0.250000 0.750000
vt 0.187500 0.500000
vt 0.375000 0.875000
vt 0.375000 0.375000
vt 0.341635 0.500000
vt 0.312500 0.750000
vt 0.312500 0.500000
vt 0.584963 0.040037
vt 0.415037 0.209963
vt 0.415037 0.040037
vt 0.658365 0.750000
vt 0.658365 0.500000
vt 0.625000 0.437500
vt 0.375000 0.466635
vt 0.375000 0.437500
vt 0.375000 0.000000
vt 0.375000 0.250000
vt 0.587558 0.000000
vt 0.412442 0.000000
vt 0.625000 0.250000
vt 0.625000 0.000000
vt 0.625000 0.283365
vt 0.584963 0.209963
vt 0.625000 0.466635
vt 0.341635 0.750000
vt 0.584963 0.709963
vt 0.625000 0.783365
vt 0.158365 0.750000
vt 0.158365 0.500000
vt 0.375000 0.438184
vt 0.625000 0.500000
vt 0.375000 0.500000
vt 0.375000 0.750000
vt 0.625000 1.000000
vt 0.375000 1.000000
vt 0.313184 0.750000
vt 0.313184 0.500000
vt 0.875000 0.500000
vt 0.686816 0.750000
vt 0.686816 0.500000
vt 0.187500 0.750000
vt 0.625000 0.811816
vt 0.375000 0.811816
vt 0.125000 0.750000
vt 0.125000 0.500000
vt 0.625000 0.875000
vt 0.625000 0.750000
vt 0.625000 0.375000
vt 0.625000 0.966635
vt 0.687500 0.750000
vt 0.841635 0.750000
vt 0.625000 0.438184
vt 0.875000 0.750000
s 0
f 6/1/1 13/2/1 8/3/1
f 2/4/2 4/5/2 9/6/2
f 22/7/1 12/8/1 10/9/1
f 19/10/3 6/11/3 7/12/3
f 27/13/4 21/14/4 25/15/4
f 18/16/5 7/17/5 5/18/5
f 1/19/6 3/20/6 5/21/6
f 12/8/1 3/22/1 10/9/1
f 7/17/5 1/23/5 5/18/5
f 26/24/7 10/25/7 11/26/7
f 16/27/8 17/28/8 14/29/8
f 3/22/1 6/1/1 8/3/1
f 9/6/9 23/30/9 28/31/9
f 9/32/5 26/33/5 11/34/5
f 1/23/5 9/32/5 11/34/5
f 13/35/10 17/28/10 18/36/10
f 15/37/11 14/29/11 13/38/11
f 19/39/12 16/27/12 15/40/12
f 19/41/13 17/28/13 20/42/13
f 25/15/14 28/43/14 27/13/14
f 26/24/15 21/14/15 22/44/15
f 23/30/16 27/13/16 28/31/16
f 22/7/17 24/45/17 23/46/17
f 5/21/18 13/47/18 18/48/18
f 30/40/8 31/36/8 29/35/8
f 47/49/5 36/50/5 35/51/5
f 36/50/4 33/52/4 35/51/4
f 44/3/1 30/53/1 29/54/1
f 35/51/19 46/55/19 47/56/19
f 32/57/20 42/11/20 43/12/20
f 38/4/21 48/58/21 45/59/21
f 37/19/19 44/60/19 41/21/19
f 48/61/1 39/22/1 46/62/1
f 43/17/5 37/23/5 41/18/5
f 32/39/5 41/18/5 31/36/5
f 41/21/19 29/63/19 31/64/19
f 43/12/21 40/5/21 38/4/21
f 40/65/1 44/3/1 39/22/1
f 34/66/1 46/62/1 33/52/1
f 45/59/22 34/66/22 36/50/22
f 47/56/19 39/20/19 37/19/19
f 38/67/5 47/49/5 37/23/5
f 50/40/8 51/36/8 49/35/8
f 67/49/5 56/50/5 55/51/5
f 56/50/4 53/52/4 55/51/4
f 64/3/1 50/53/1 49/54/1
f 55/51/19 66/55/19 67/56/19
f 52/57/20 62/11/20 63/12/20
f 58/4/21 68/58/21 65/59/21
f 57/19/19 64/60/19 61/21/19
f 68/61/1 59/22/1 66/62/1
f 63/17/5 57/23/5 61/18/5
f 52/39/5 61/18/5 51/36/5
f 61/21/19 49/63/19 51/64/19
f 63/12/21 60/5/21 58/4/21
f 60/65/1 64/3/1 59/22/1
f 54/66/1 66/62/1 53/52/1
f 65/59/22 54/66/22 56/50/22
f 67/56/19 59/20/19 57/19/19
f 58/67/5 67/49/5 57/23/5
f 6/1/1 15/68/1 13/2/1
f 2/4/23 7/12/23 6/11/23
f 4/5/2 12/69/2 9/6/2
f 2/4/23 6/11/23 4/5/23
f 22/7/1 23/46/1 12/8/1
f 19/10/3 15/70/3 6/11/3
f 27/13/4 24/45/4 21/14/4
f 18/16/5 19/41/5 7/17/5
f 1/19/24 11/26/24 10/25/24
f 3/20/6 8/60/6 5/21/6
f 1/19/24 10/25/24 3/20/24
f 12/8/1 4/65/1 3/22/1
f 7/17/5 2/67/5 1/23/5
f 26/24/7 22/44/7 10/25/7
f 16/27/25 20/42/25 17/28/25
f 3/22/1 4/65/1 6/1/1
f 9/6/9 12/69/9 23/30/9
f 9/32/5 28/43/5 26/33/5
f 1/23/5 2/67/5 9/32/5
f 13/35/10 14/29/10 17/28/10
f 15/37/11 16/27/11 14/29/11
f 19/39/26 20/42/26 16/27/26
f 19/41/27 18/16/27 17/28/27
f 25/15/14 26/33/14 28/43/14
f 26/24/15 25/15/15 21/14/15
f 23/30/16 24/45/16 27/13/16
f 22/7/17 21/14/17 24/45/17
f 5/21/18 8/60/18 13/47/18
f 30/40/8 32/39/8 31/36/8
f 47/49/5 45/71/5 36/50/5
f 36/50/4 34/66/4 33/52/4
f 44/3/1 42/1/1 30/53/1
f 35/51/19 33/52/19 46/55/19
f 32/57/20 30/72/20 42/11/20
f 38/4/21 40/5/21 48/58/21
f 37/19/19 39/20/19 44/60/19
f 48/61/1 40/65/1 39/22/1
f 43/17/5 38/67/5 37/23/5
f 32/39/5 43/17/5 41/18/5
f 41/21/19 44/60/19 29/63/19
f 43/12/21 42/11/21 40/5/21
f 40/65/1 42/1/1 44/3/1
f 34/66/1 48/61/1 46/62/1
f 45/59/22 48/58/22 34/66/22
f 47/56/19 46/55/19 39/20/19
f 38/67/5 45/71/5 47/49/5
f 50/40/8 52/39/8 51/36/8
f 67/49/5 65/71/5 56/50/5
f 56/50/4 54/66/4 53/52/4
f 64/3/1 62/1/1 50/53/1
f 55/51/19 53/52/19 66/55/19
f 52/57/20 50/72/20 62/11/20
f 58/4/21 60/5/21 68/58/21
f 57/19/19 59/20/19 64/60/19
f 68/61/1 60/65/1 59/22/1
f 63/17/5 58/67/5 57/23/5
f 52/39/5 63/17/5 61/18/5
f 61/21/19 64/60/19 49/63/19
f 63/12/21 62/11/21 60/5/21
f 60/65/1 62/1/1 64/3/1
f 54/66/1 68/61/1 66/62/1
f 65/59/22 68/58/22 54/66/22
f 67/56/19 66/55/19 59/20/19
f 58/67/5 65/71/5 67/49/5
