{
	"asset":{
		"generator":"Khronos glTF Blender I/O v4.3.47",
		"version":"2.0"
	},
	"extensionsUsed":[
		"KHR_materials_specular"
	],
	"scene":0,
	"scenes":[
		{
			"name":"Scene",
			"nodes":[
				0
			]
		}
	],
	"nodes":[
		{
			"mesh":0,
			"name":"BaseMesh_Cyclops.001"
		}
	],
	"materials":[
		{
			"doubleSided":true,
			"extensions":{
				"KHR_materials_specular":{
					"specularFactor":0
				}
			},
			"name":"lambert2SG.005",
			"pbrMetallicRoughness":{
				"baseColorFactor":[
					0.800000011920929,
					0.800000011920929,
					0.800000011920929,
					1
				],
				"metallicFactor":0
			}
		}
	],
	"meshes":[
		{
			"name":"BaseMesh_Cyclops.005",
			"primitives":[
				{
					"attributes":{
						"POSITION":0,
						"NORMAL":1,
						"TEXCOORD_0":2
					},
					"indices":3,
					"material":0
				}
			]
		}
	],
	"accessors":[
		{
			"bufferView":0,
			"componentType":5126,
			"count":6822,
			"max":[
				0.9944760203361511,
				1.8007662296295166,
				0.489217072725296
			],
			"min":[
				-0.9944869875907898,
				-0.0020690106321126223,
				-0.43645185232162476
			],
			"type":"VEC3"
		},
		{
			"bufferView":1,
			"componentType":5126,
			"count":6822,
			"type":"VEC3"
		},
		{
			"bufferView":2,
			"componentType":5126,
			"count":6822,
			"type":"VEC2"
		},
		{
			"bufferView":3,
			"componentType":5123,
			"count":33963,
			"type":"SCALAR"
		}
	],
	"bufferViews":[
		{
			"buffer":0,
			"byteLength":81864,
			"byteOffset":0,
			"target":34962
		},
		{
			"buffer":0,
			"byteLength":81864,
			"byteOffset":81864,
			"target":34962
		},
		{
			"buffer":0,
			"byteLength":54576,
			"byteOffset":163728,
			"target":34962
		},
		{
			"buffer":0,
			"byteLength":67926,
			"byteOffset":218304,
			"target":34963
		}
	],
	"buffers":[
		{
			"byteLength":286232,
			"uri":"enemy.bin"
		}
	]
}
