{
	"asset":{
		"generator":"Khronos glTF Blender I/O v4.3.47",
		"version":"2.0"
	},
	"scene":0,
	"scenes":[
		{
			"name":"Scene",
			"nodes":[
				0
			]
		}
	],
	"nodes":[
		{
			"mesh":0,
			"name":"\u7403.001"
		}
	],
	"animations":[
		{
			"channels":[
				{
					"sampler":0,
					"target":{
						"node":0,
						"path":"translation"
					}
				},
				{
					"sampler":1,
					"target":{
						"node":0,
						"path":"scale"
					}
				}
			],
			"name":"\u7403.001\u30a2\u30af\u30b7\u30e7\u30f3",
			"samplers":[
				{
					"input":4,
					"interpolation":"STEP",
					"output":5
				},
				{
					"input":6,
					"interpolation":"LINEAR",
					"output":7
				}
			]
		}
	],
	"meshes":[
		{
			"name":"\u7403.003",
			"primitives":[
				{
					"attributes":{
						"POSITION":0,
						"NORMAL":1,
						"TEXCOORD_0":2
					},
					"indices":3
				}
			]
		}
	],
	"accessors":[
		{
			"bufferView":0,
			"componentType":5126,
			"count":2030,
			"max":[
				0.9999997019767761,
				1.997241735458374,
				0.9999993443489075
			],
			"min":[
				-0.9999990463256836,
				0.001042008399963379,
				-1
			],
			"type":"VEC3"
		},
		{
			"bufferView":1,
			"componentType":5126,
			"count":2030,
			"type":"VEC3"
		},
		{
			"bufferView":2,
			"componentType":5126,
			"count":2030,
			"type":"VEC2"
		},
		{
			"bufferView":3,
			"componentType":5123,
			"count":2880,
			"type":"SCALAR"
		},
		{
			"bufferView":4,
			"componentType":5126,
			"count":2,
			"max":[
				2
			],
			"min":[
				0
			],
			"type":"SCALAR"
		},
		{
			"bufferView":5,
			"componentType":5126,
			"count":2,
			"type":"VEC3"
		},
		{
			"bufferView":6,
			"componentType":5126,
			"count":49,
			"max":[
				2
			],
			"min":[
				0
			],
			"type":"SCALAR"
		},
		{
			"bufferView":7,
			"componentType":5126,
			"count":49,
			"type":"VEC3"
		}
	],
	"bufferViews":[
		{
			"buffer":0,
			"byteLength":24360,
			"byteOffset":0,
			"target":34962
		},
		{
			"buffer":0,
			"byteLength":24360,
			"byteOffset":24360,
			"target":34962
		},
		{
			"buffer":0,
			"byteLength":16240,
			"byteOffset":48720,
			"target":34962
		},
		{
			"buffer":0,
			"byteLength":5760,
			"byteOffset":64960,
			"target":34963
		},
		{
			"buffer":0,
			"byteLength":8,
			"byteOffset":70720
		},
		{
			"buffer":0,
			"byteLength":24,
			"byteOffset":70728
		},
		{
			"buffer":0,
			"byteLength":196,
			"byteOffset":70752
		},
		{
			"buffer":0,
			"byteLength":588,
			"byteOffset":70948
		}
	],
	"buffers":[
		{
			"byteLength":71536,
			"uri":"player.bin"
		}
	]
}
